<svg width="130" height="28" viewBox="0 0 130 28" fill="none" xmlns="http://www.w3.org/2000/svg">
<path d="M113.707 8.70712C114.098 8.31659 114.098 7.68343 113.707 7.2929L107.343 0.928942C106.953 0.538417 106.319 0.538417 105.929 0.928941C105.538 1.31947 105.538 1.95263 105.929 2.34316L111.586 8.00001L105.929 13.6569C105.538 14.0474 105.538 14.6806 105.929 15.0711C106.319 15.4616 106.953 15.4616 107.343 15.0711L113.707 8.70712ZM-8.74228e-08 9L113 9.00001L113 7.00001L8.74228e-08 7L-8.74228e-08 9Z" fill="black"/>
<rect x="102" y="9" width="28" height="19" rx="9.5" fill="#FEFFFF"/>
</svg>
