<svg width="353" height="61" viewBox="0 0 353 61" fill="none" xmlns="http://www.w3.org/2000/svg">
<rect width="353" height="61" rx="15" fill="#FEFFFF"/>
<path d="M22.7808 29.346C22.7808 30.1 22.7244 30.7717 22.6118 31.361C22.5078 31.9503 22.3388 32.453 22.1048 32.869C21.8794 33.2763 21.5804 33.5883 21.2078 33.805C20.8351 34.0217 20.3888 34.13 19.8688 34.13C19.2101 34.13 18.6641 33.9393 18.2308 33.558C17.8061 33.1767 17.4898 32.6307 17.2818 31.92C17.0738 31.2007 16.9698 30.3427 16.9698 29.346C16.9698 28.3407 17.0651 27.4827 17.2558 26.772C17.4464 26.0613 17.7541 25.5197 18.1788 25.147C18.6034 24.7657 19.1668 24.575 19.8688 24.575C20.5274 24.575 21.0691 24.7657 21.4938 25.147C21.9271 25.5197 22.2478 26.0613 22.4558 26.772C22.6724 27.4827 22.7808 28.3407 22.7808 29.346ZM18.1008 29.346C18.1008 30.1953 18.1571 30.9017 18.2698 31.465C18.3911 32.0283 18.5818 32.453 18.8418 32.739C19.1018 33.0163 19.4441 33.155 19.8688 33.155C20.2934 33.155 20.6358 33.0163 20.8958 32.739C21.1558 32.4617 21.3421 32.0413 21.4548 31.478C21.5761 30.906 21.6368 30.1953 21.6368 29.346C21.6368 28.4967 21.5761 27.7947 21.4548 27.24C21.3421 26.6767 21.1558 26.2563 20.8958 25.979C20.6358 25.693 20.2934 25.55 19.8688 25.55C19.4441 25.55 19.1018 25.693 18.8418 25.979C18.5818 26.2563 18.3911 26.6767 18.2698 27.24C18.1571 27.7947 18.1008 28.4967 18.1008 29.346ZM24.0172 30.035C24.0172 29.4977 24.0519 28.969 24.1212 28.449C24.1905 27.929 24.3119 27.4393 24.4852 26.98C24.6585 26.512 24.8969 26.1003 25.2002 25.745C25.5035 25.381 25.8892 25.0993 26.3572 24.9C26.8252 24.692 27.3885 24.588 28.0472 24.588C28.2205 24.588 28.4069 24.5967 28.6062 24.614C28.8142 24.6313 28.9875 24.6617 29.1262 24.705V25.68C28.9789 25.628 28.8099 25.589 28.6192 25.563C28.4372 25.537 28.2552 25.524 28.0732 25.524C27.5185 25.524 27.0549 25.6237 26.6822 25.823C26.3095 26.0223 26.0149 26.2953 25.7982 26.642C25.5815 26.9887 25.4212 27.3873 25.3172 27.838C25.2219 28.2887 25.1612 28.7697 25.1352 29.281H25.2132C25.3345 29.073 25.4862 28.8867 25.6682 28.722C25.8589 28.5573 26.0842 28.4273 26.3442 28.332C26.6129 28.2367 26.9205 28.189 27.2672 28.189C27.7785 28.189 28.2205 28.3017 28.5932 28.527C28.9745 28.7437 29.2692 29.0643 29.4772 29.489C29.6852 29.905 29.7892 30.412 29.7892 31.01C29.7892 31.6513 29.6765 32.206 29.4512 32.674C29.2259 33.142 28.9052 33.5017 28.4892 33.753C28.0732 34.0043 27.5792 34.13 27.0072 34.13C26.5912 34.13 26.2012 34.0477 25.8372 33.883C25.4732 33.7183 25.1525 33.467 24.8752 33.129C24.6065 32.791 24.3942 32.3663 24.2382 31.855C24.0909 31.335 24.0172 30.7283 24.0172 30.035ZM26.9942 33.168C27.4969 33.168 27.8999 32.9947 28.2032 32.648C28.5152 32.2927 28.6712 31.7467 28.6712 31.01C28.6712 30.4207 28.5325 29.9527 28.2552 29.606C27.9865 29.2593 27.5749 29.086 27.0202 29.086C26.6475 29.086 26.3225 29.1727 26.0452 29.346C25.7679 29.5107 25.5512 29.723 25.3952 29.983C25.2392 30.243 25.1612 30.5117 25.1612 30.789C25.1612 31.075 25.2002 31.3567 25.2782 31.634C25.3562 31.9113 25.4689 32.167 25.6162 32.401C25.7722 32.635 25.9629 32.8213 26.1882 32.96C26.4222 33.0987 26.6909 33.168 26.9942 33.168ZM31.2206 33.298C31.2206 32.9773 31.2943 32.752 31.4416 32.622C31.5889 32.492 31.7709 32.427 31.9876 32.427C32.2043 32.427 32.3906 32.492 32.5466 32.622C32.7026 32.752 32.7806 32.9773 32.7806 33.298C32.7806 33.61 32.7026 33.8353 32.5466 33.974C32.3906 34.1127 32.2043 34.182 31.9876 34.182C31.7709 34.182 31.5889 34.1127 31.4416 33.974C31.2943 33.8353 31.2206 33.61 31.2206 33.298ZM40.0334 34H34.2354V33.051L36.5104 30.594C36.9437 30.126 37.3077 29.71 37.6024 29.346C37.9057 28.982 38.1354 28.6267 38.2914 28.28C38.4474 27.9247 38.5254 27.539 38.5254 27.123C38.5254 26.6117 38.3867 26.226 38.1094 25.966C37.8321 25.6973 37.4681 25.563 37.0174 25.563C36.6014 25.563 36.2331 25.641 35.9124 25.797C35.5917 25.953 35.2667 26.1697 34.9374 26.447L34.3264 25.68C34.5604 25.472 34.8117 25.2857 35.0804 25.121C35.3491 24.9563 35.6437 24.8263 35.9644 24.731C36.2937 24.6357 36.6491 24.588 37.0304 24.588C37.5764 24.588 38.0444 24.6877 38.4344 24.887C38.8331 25.0863 39.1407 25.3723 39.3574 25.745C39.5741 26.109 39.6824 26.5467 39.6824 27.058C39.6824 27.422 39.6261 27.7687 39.5134 28.098C39.4094 28.4187 39.2577 28.735 39.0584 29.047C38.8591 29.359 38.6207 29.6753 38.3434 29.996C38.0747 30.3167 37.7714 30.6547 37.4334 31.01L35.6524 32.908L35.6654 32.96H40.0334V34ZM47.0288 29.346C47.0288 30.1 46.9725 30.7717 46.8598 31.361C46.7558 31.9503 46.5868 32.453 46.3528 32.869C46.1275 33.2763 45.8285 33.5883 45.4558 33.805C45.0831 34.0217 44.6368 34.13 44.1168 34.13C43.4581 34.13 42.9121 33.9393 42.4788 33.558C42.0541 33.1767 41.7378 32.6307 41.5298 31.92C41.3218 31.2007 41.2178 30.3427 41.2178 29.346C41.2178 28.3407 41.3131 27.4827 41.5038 26.772C41.6945 26.0613 42.0021 25.5197 42.4268 25.147C42.8515 24.7657 43.4148 24.575 44.1168 24.575C44.7755 24.575 45.3171 24.7657 45.7418 25.147C46.1751 25.5197 46.4958 26.0613 46.7038 26.772C46.9205 27.4827 47.0288 28.3407 47.0288 29.346ZM42.3488 29.346C42.3488 30.1953 42.4051 30.9017 42.5178 31.465C42.6391 32.0283 42.8298 32.453 43.0898 32.739C43.3498 33.0163 43.6921 33.155 44.1168 33.155C44.5415 33.155 44.8838 33.0163 45.1438 32.739C45.4038 32.4617 45.5901 32.0413 45.7028 31.478C45.8241 30.906 45.8848 30.1953 45.8848 29.346C45.8848 28.4967 45.8241 27.7947 45.7028 27.24C45.5901 26.6767 45.4038 26.2563 45.1438 25.979C44.8838 25.693 44.5415 25.55 44.1168 25.55C43.6921 25.55 43.3498 25.693 43.0898 25.979C42.8298 26.2563 42.6391 26.6767 42.5178 27.24C42.4051 27.7947 42.3488 28.4967 42.3488 29.346Z" fill="#777575"/>
<path d="M62.99 23.418H63.913V23.938C63.913 26.018 61.638 27.513 59.233 27.89L58.83 27.045C60.949 26.759 62.99 25.459 62.99 23.938V23.418ZM63.159 23.418H64.082V23.938C64.082 25.42 66.149 26.759 68.229 27.045L67.826 27.89C65.434 27.513 63.159 25.979 63.159 23.938V23.418ZM62.99 29.502H64.056V31.53H62.99V29.502ZM58.219 28.826H68.84V29.697H58.219V28.826ZM59.402 31.179H67.527V35.014H66.448V32.05H59.402V31.179ZM73.077 23.86H73.961V25.069C73.961 27.292 72.687 29.125 70.711 29.879L70.152 29.008C71.92 28.371 73.077 26.824 73.077 25.069V23.86ZM73.272 23.86H74.143V25.147C74.143 26.733 75.313 28.202 77.003 28.787L76.457 29.645C74.546 28.943 73.272 27.188 73.272 25.147V23.86ZM78.225 23.262H79.304V30.373H78.225V23.262ZM79.005 26.356H81.046V27.266H79.005V26.356ZM71.673 30.958H79.304V35.014H78.225V31.855H71.673V30.958ZM85.205 23.821H86.102V24.965C86.102 27.188 84.776 29.099 82.787 29.853L82.241 28.995C84.022 28.345 85.205 26.72 85.205 24.965V23.821ZM85.4 23.821H86.284V24.965C86.284 26.655 87.493 28.176 89.235 28.787L88.689 29.632C86.726 28.917 85.4 27.123 85.4 24.965V23.821ZM83.931 30.932H91.783V35.014H90.691V31.816H83.931V30.932ZM90.691 23.262H91.783V30.334H90.691V23.262ZM94.096 29.151H104.756V30.035H94.096V29.151ZM98.867 27.37H99.933V29.554H98.867V27.37ZM98.854 23.444H99.79V23.964C99.79 26.083 97.541 27.591 95.149 27.981L94.733 27.123C96.839 26.837 98.854 25.537 98.854 23.964V23.444ZM99.023 23.444H99.946V23.964C99.946 25.537 101.974 26.837 104.067 27.123L103.664 27.981C101.285 27.578 99.023 26.083 99.023 23.964V23.444ZM95.279 31.179H103.404V35.014H102.325V32.05H95.279V31.179Z" fill="black"/>
<path d="M126.687 26.06C126.687 26.7 126.567 27.2533 126.327 27.72C126.1 28.1867 125.78 28.5667 125.367 28.86C124.953 29.1533 124.46 29.36 123.887 29.48V29.56C124.967 29.6933 125.773 30.0533 126.307 30.64C126.84 31.2267 127.107 31.9933 127.107 32.94C127.107 33.7667 126.92 34.5067 126.547 35.16C126.187 35.8 125.62 36.3 124.847 36.66C124.087 37.02 123.113 37.2 121.927 37.2C121.22 37.2 120.567 37.14 119.967 37.02C119.367 36.9133 118.787 36.7133 118.227 36.42V34.78C118.787 35.0733 119.393 35.3067 120.047 35.48C120.7 35.64 121.327 35.72 121.927 35.72C123.113 35.72 123.967 35.4733 124.487 34.98C125.007 34.4733 125.267 33.78 125.267 32.9C125.267 32.3 125.12 31.82 124.827 31.46C124.547 31.0867 124.127 30.8133 123.567 30.64C123.02 30.4667 122.347 30.38 121.547 30.38H120.287V28.88H121.567C122.313 28.88 122.933 28.7667 123.427 28.54C123.92 28.3133 124.287 28 124.527 27.6C124.78 27.1867 124.907 26.7133 124.907 26.18C124.907 25.4867 124.693 24.9533 124.267 24.58C123.84 24.1933 123.253 24 122.507 24C122.027 24 121.593 24.0533 121.207 24.16C120.82 24.2533 120.46 24.3933 120.127 24.58C119.807 24.7533 119.487 24.96 119.167 25.2L118.307 24C118.627 23.7333 118.993 23.4867 119.407 23.26C119.833 23.0333 120.307 22.8533 120.827 22.72C121.347 22.5867 121.907 22.52 122.507 22.52C123.907 22.52 124.953 22.8533 125.647 23.52C126.34 24.1867 126.687 25.0333 126.687 26.06ZM133.329 28.24C134.236 28.24 135.022 28.4067 135.689 28.74C136.369 29.0733 136.896 29.5533 137.269 30.18C137.642 30.7933 137.829 31.5467 137.829 32.44C137.829 33.4267 137.629 34.28 137.229 35C136.829 35.7067 136.249 36.2533 135.489 36.64C134.742 37.0133 133.836 37.2 132.769 37.2C132.076 37.2 131.429 37.1333 130.829 37C130.229 36.8667 129.716 36.6733 129.289 36.42V34.76C129.742 35.0533 130.289 35.2867 130.929 35.46C131.582 35.62 132.202 35.7 132.789 35.7C133.442 35.7 134.009 35.5933 134.489 35.38C134.982 35.1533 135.362 34.8133 135.629 34.36C135.909 33.8933 136.049 33.3133 136.049 32.62C136.049 31.6867 135.782 30.9733 135.249 30.48C134.716 29.9733 133.876 29.72 132.729 29.72C132.369 29.72 131.962 29.7533 131.509 29.82C131.069 29.8867 130.716 29.9533 130.449 30.02L129.609 29.46L130.109 22.72H136.889V24.32H131.609L131.289 28.46C131.516 28.42 131.802 28.3733 132.149 28.32C132.496 28.2667 132.889 28.24 133.329 28.24ZM149.251 33.76H147.311V37H145.631V33.76H139.251V32.26L145.531 22.64H147.311V32.18H149.251V33.76ZM145.631 27.68C145.631 27.3333 145.631 27.02 145.631 26.74C145.644 26.4467 145.658 26.1733 145.671 25.92C145.684 25.6667 145.691 25.4267 145.691 25.2C145.704 24.96 145.718 24.7333 145.731 24.52H145.651C145.544 24.7733 145.418 25.0467 145.271 25.34C145.124 25.6333 144.984 25.88 144.851 26.08L140.931 32.18H145.631V27.68Z" fill="black"/>
<path d="M319.862 12.056C321.11 12.056 321.726 12.8 321.726 13.784C321.726 14.776 321.11 15.52 319.862 15.52C318.613 15.52 317.998 14.776 317.998 13.784C317.998 12.8 318.613 12.056 319.862 12.056ZM319.862 12.72C319.07 12.72 318.766 13.208 318.766 13.784C318.766 14.36 319.07 14.848 319.862 14.848C320.654 14.848 320.958 14.36 320.958 13.784C320.958 13.208 320.654 12.72 319.862 12.72ZM323.35 11.776C323.558 11.776 323.75 11.88 323.75 12.112V15.4C323.75 15.632 323.558 15.736 323.35 15.736C323.142 15.736 322.95 15.632 322.95 15.4V12.112C322.95 11.88 323.142 11.776 323.35 11.776ZM319.462 16.08C319.662 16.08 319.862 16.184 319.862 16.408V17.08H322.966V16.408C322.966 16.184 323.158 16.08 323.35 16.08C323.558 16.08 323.75 16.184 323.75 16.408V18.512C323.75 18.968 323.598 19.112 323.134 19.112H319.694C319.23 19.112 319.078 18.968 319.078 18.512V16.408C319.078 16.184 319.27 16.08 319.462 16.08ZM319.862 18.288C319.862 18.408 319.902 18.456 320.03 18.456H322.798C322.918 18.456 322.966 18.408 322.966 18.288V17.72H319.862V18.288ZM330.199 16.384C330.663 16.384 330.815 16.528 330.815 16.984V18.528C330.815 18.984 330.663 19.128 330.199 19.128H326.519C326.055 19.128 325.911 18.984 325.911 18.528V16.984C325.911 16.528 326.055 16.384 326.519 16.384H330.199ZM331.439 14.752C331.631 14.752 331.719 14.912 331.719 15.096C331.719 15.28 331.631 15.432 331.439 15.432H325.279C325.087 15.432 324.999 15.28 324.999 15.096C324.999 14.912 325.087 14.752 325.279 14.752H329.743C329.871 14.248 329.935 13.728 329.935 13.2V12.928C329.935 12.808 329.895 12.768 329.767 12.768H326.119C325.927 12.768 325.847 12.608 325.847 12.424C325.847 12.232 325.927 12.072 326.119 12.072H330.119C330.583 12.072 330.735 12.216 330.735 12.672V13.144C330.735 13.712 330.639 14.304 330.519 14.752H331.439ZM326.871 17.048C326.743 17.048 326.703 17.088 326.703 17.208V18.304C326.703 18.424 326.743 18.464 326.871 18.464H329.847C329.975 18.464 330.015 18.424 330.015 18.304V17.208C330.015 17.088 329.975 17.048 329.847 17.048H326.871Z" fill="#44BD91"/>
<path d="M320.505 26.8C320.805 26.8 321.025 26.93 321.025 27.23V33.59C321.025 33.88 320.795 34.01 320.525 34.01C320.265 34.01 320.025 33.88 320.025 33.59V27.98L318.525 28.9C318.275 29.04 318.025 28.93 317.895 28.7C317.785 28.49 317.805 28.22 318.045 28.09L319.835 27.02C320.105 26.87 320.305 26.8 320.505 26.8ZM326.378 26.39C327.968 26.39 328.748 27.07 328.748 28.06C328.748 29.05 327.968 29.73 326.378 29.73C324.798 29.73 324.018 29.05 324.018 28.06C324.018 27.07 324.798 26.39 326.378 26.39ZM326.378 27.18C325.398 27.18 324.958 27.55 324.958 28.06C324.958 28.57 325.398 28.94 326.378 28.94C327.358 28.94 327.808 28.57 327.808 28.06C327.808 27.55 327.358 27.18 326.378 27.18ZM330.468 26.22C330.728 26.22 330.968 26.35 330.968 26.64V32.86C330.968 33.15 330.728 33.28 330.468 33.28C330.218 33.28 329.978 33.15 329.978 32.86V32.4H328.378C328.148 32.4 328.038 32.22 328.038 32C328.038 31.77 328.148 31.59 328.378 31.59H329.978V26.64C329.978 26.35 330.218 26.22 330.468 26.22ZM329.068 30.14C329.298 30.11 329.438 30.27 329.448 30.51C329.468 30.73 329.378 30.93 329.148 30.96C328.458 31.05 327.648 31.11 326.788 31.15V32.33C326.788 32.6 326.568 32.72 326.288 32.72C326.018 32.72 325.798 32.6 325.798 32.33V31.18C325.098 31.2 324.388 31.21 323.718 31.21C323.478 31.21 323.368 31.03 323.368 30.8C323.368 30.57 323.478 30.38 323.718 30.38C325.388 30.38 327.288 30.35 329.068 30.14ZM325.348 32.88C325.598 32.88 325.848 33.01 325.848 33.3V34.28C325.848 34.43 325.898 34.49 326.058 34.49H330.858C331.098 34.49 331.208 34.68 331.208 34.91C331.208 35.14 331.098 35.34 330.858 35.34H325.608C325.028 35.34 324.838 35.16 324.838 34.59V33.3C324.838 33.01 325.078 32.88 325.348 32.88Z" fill="#0000FF"/>
<path d="M301.281 43.24C301.521 43.24 301.697 43.344 301.697 43.584V48.672C301.697 48.904 301.513 49.008 301.297 49.008C301.089 49.008 300.897 48.904 300.897 48.672V44.184L299.697 44.92C299.497 45.032 299.297 44.944 299.193 44.76C299.105 44.592 299.121 44.376 299.312 44.272L300.745 43.416C300.961 43.296 301.121 43.24 301.281 43.24ZM305.635 43.192C307.075 43.192 307.683 44.16 307.683 45.928V46.32C307.683 48.088 307.075 49.056 305.635 49.056C304.195 49.056 303.587 48.088 303.587 46.32V45.928C303.587 44.16 304.195 43.192 305.635 43.192ZM305.635 43.944C304.691 43.944 304.395 44.568 304.395 45.992V46.256C304.395 47.68 304.691 48.304 305.635 48.304C306.579 48.304 306.875 47.68 306.875 46.256V45.992C306.875 44.568 306.579 43.944 305.635 43.944ZM309.206 48.216C309.462 48.264 309.614 48.456 309.518 48.72L309.118 49.92C309.046 50.128 308.886 50.192 308.71 50.16C308.534 50.128 308.43 50.008 308.462 49.824L308.67 48.536C308.718 48.264 308.966 48.176 309.206 48.216ZM312.51 43.192C313.95 43.192 314.558 44.16 314.558 45.928V46.32C314.558 48.088 313.95 49.056 312.51 49.056C311.07 49.056 310.462 48.088 310.462 46.32V45.928C310.462 44.16 311.07 43.192 312.51 43.192ZM312.51 43.944C311.566 43.944 311.27 44.568 311.27 45.992V46.256C311.27 47.68 311.566 48.304 312.51 48.304C313.454 48.304 313.75 47.68 313.75 46.256V45.992C313.75 44.568 313.454 43.944 312.51 43.944ZM317.393 43.192C318.833 43.192 319.441 44.16 319.441 45.928V46.32C319.441 48.088 318.833 49.056 317.393 49.056C315.953 49.056 315.345 48.088 315.345 46.32V45.928C315.345 44.16 315.953 43.192 317.393 43.192ZM317.393 43.944C316.449 43.944 316.153 44.568 316.153 45.992V46.256C316.153 47.68 316.449 48.304 317.393 48.304C318.337 48.304 318.633 47.68 318.633 46.256V45.992C318.633 44.568 318.337 43.944 317.393 43.944ZM322.804 43.24C323.044 43.24 323.22 43.344 323.22 43.584V48.672C323.22 48.904 323.036 49.008 322.82 49.008C322.612 49.008 322.42 48.904 322.42 48.672V44.184L321.22 44.92C321.02 45.032 320.82 44.944 320.716 44.76C320.628 44.592 320.644 44.376 320.836 44.272L322.268 43.416C322.484 43.296 322.644 43.24 322.804 43.24ZM327.503 42.912C328.775 42.912 329.399 43.456 329.399 44.248C329.399 45.04 328.775 45.584 327.503 45.584C326.239 45.584 325.615 45.04 325.615 44.248C325.615 43.456 326.239 42.912 327.503 42.912ZM327.503 43.544C326.719 43.544 326.367 43.84 326.367 44.248C326.367 44.656 326.719 44.952 327.503 44.952C328.287 44.952 328.647 44.656 328.647 44.248C328.647 43.84 328.287 43.544 327.503 43.544ZM330.775 42.776C330.983 42.776 331.175 42.88 331.175 43.112V48.088C331.175 48.32 330.983 48.424 330.775 48.424C330.575 48.424 330.383 48.32 330.383 48.088V47.72H329.103C328.919 47.72 328.831 47.576 328.831 47.4C328.831 47.216 328.919 47.072 329.103 47.072H330.383V43.112C330.383 42.88 330.575 42.776 330.775 42.776ZM329.655 45.912C329.839 45.888 329.951 46.016 329.959 46.208C329.975 46.384 329.903 46.544 329.719 46.568C329.167 46.64 328.519 46.688 327.831 46.72V47.664C327.831 47.88 327.655 47.976 327.431 47.976C327.215 47.976 327.039 47.88 327.039 47.664V46.744C326.479 46.76 325.911 46.768 325.375 46.768C325.183 46.768 325.095 46.624 325.095 46.44C325.095 46.256 325.183 46.104 325.375 46.104C326.711 46.104 328.231 46.08 329.655 45.912ZM326.679 48.104C326.879 48.104 327.079 48.208 327.079 48.44V49.224C327.079 49.344 327.119 49.392 327.247 49.392H331.087C331.279 49.392 331.367 49.544 331.367 49.728C331.367 49.912 331.279 50.072 331.087 50.072H326.887C326.423 50.072 326.271 49.928 326.271 49.472V48.44C326.271 48.208 326.463 48.104 326.679 48.104Z" fill="#777575"/>
<rect x="113.5" y="18.5" width="41" height="22" fill="black" fill-opacity="0.25" stroke="black"/>
</svg>
