<svg width="157" height="35" viewBox="0 0 157 35" fill="none" xmlns="http://www.w3.org/2000/svg">
<rect x="9" y="4.5" width="139" height="26" fill="#385FF2"/>
<path d="M35.527 13.466H39.631V14.708H35.527V13.466ZM31.261 10.622H32.467V12.62C32.467 15.77 30.703 18.398 27.985 19.496L27.211 18.308C29.623 17.408 31.261 15.104 31.261 12.62V10.622ZM31.549 10.622H32.755V12.674C32.755 14.942 34.339 17.084 36.697 17.948L35.887 19.1C33.295 18.092 31.549 15.572 31.549 12.674V10.622ZM39.073 9.65H40.567V21.818H39.073V9.65ZM30.109 24.32H40.963V25.544H30.109V24.32ZM30.109 20.468H31.603V24.896H30.109V20.468ZM47.8016 12.476H49.0256V13.16C49.0256 16.004 47.2076 18.308 44.4896 19.226L43.7696 18.056C46.1816 17.3 47.8016 15.356 47.8016 13.16V12.476ZM48.0716 12.476H49.2956V13.16C49.2956 15.176 50.8796 17.03 53.2556 17.75L52.5356 18.92C49.8356 18.056 48.0716 15.824 48.0716 13.16V12.476ZM44.2016 11.63H52.8776V12.836H44.2016V11.63ZM47.8016 9.56H49.2956V12.224H47.8016V9.56ZM54.8756 9.632H56.3696V19.55H54.8756V9.632ZM55.9556 13.97H58.7816V15.212H55.9556V13.97ZM45.8036 20.414H56.3696V25.922H54.8756V21.638H45.8036V20.414ZM66.8982 10.046H68.1762V10.838C68.1762 13.79 65.0622 15.968 61.7682 16.544L61.1742 15.356C64.0542 14.924 66.8982 13.016 66.8982 10.838V10.046ZM67.1322 10.046H68.4102V10.838C68.4102 12.962 71.2902 14.906 74.1162 15.338L73.5582 16.508C70.2642 15.95 67.1322 13.718 67.1322 10.838V10.046ZM60.2922 17.912H75.0342V19.136H60.2922V17.912ZM67.0242 18.668H68.5182V22.412H67.0242V18.668ZM62.1642 24.32H73.3962V25.544H62.1642V24.32ZM62.1642 20.846H63.6402V24.716H62.1642V20.846ZM93.7393 9.614H95.2333V25.922H93.7393V9.614ZM86.6473 10.874C89.0593 10.874 90.7873 13.088 90.7873 16.544C90.7873 20.018 89.0593 22.232 86.6473 22.232C84.2533 22.232 82.5253 20.018 82.5253 16.544C82.5253 13.088 84.2533 10.874 86.6473 10.874ZM86.6473 12.224C85.0633 12.224 83.9473 13.916 83.9473 16.544C83.9473 19.19 85.0633 20.918 86.6473 20.918C88.2493 20.918 89.3473 19.19 89.3473 16.544C89.3473 13.916 88.2493 12.224 86.6473 12.224ZM110.766 9.632H112.188V21.98H110.766V9.632ZM105.06 14.348H108.138V15.572H105.06V14.348ZM107.67 9.956H109.092V21.512H107.67V9.956ZM99.2098 10.928H100.614V13.664H104.088V10.928H105.51V18.902H99.2098V10.928ZM100.614 14.852V17.696H104.088V14.852H100.614ZM101.586 24.32H112.692V25.544H101.586V24.32ZM101.586 20.324H103.08V24.986H101.586V20.324ZM116.938 18.398H128.116V19.604H116.938V18.398ZM115.048 22.574H129.79V23.816H115.048V22.574ZM116.938 11.018H127.936V12.242H118.45V18.776H116.938V11.018ZM117.964 14.654H127.594V15.842H117.964V14.654Z" fill="white"/>
<path d="M9 17L16.7942 30.5H1.20577L9 17Z" fill="#385FF2"/>
<path d="M9 18L1.20577 4.5L16.7942 4.5L9 18Z" fill="#385FF2"/>
<path d="M148 17L155.794 30.5H140.206L148 17Z" fill="#385FF2"/>
<path d="M148 18L140.206 4.5L155.794 4.5L148 18Z" fill="#385FF2"/>
</svg>
