<svg width="364" height="91" viewBox="0 0 364 91" fill="none" xmlns="http://www.w3.org/2000/svg">
<g filter="url(#filter0_d_0_1)">
<rect x="4" width="204" height="55" rx="20" fill="#44BD91"/>
</g>
<path d="M38 19.6C38.44 19.64 38.74 19.92 38.68 20.4L38.26 23.46H40.94L41.38 20.26C41.44 19.84 41.8 19.56 42.3 19.6C42.76 19.64 43.06 19.92 42.98 20.4L42.56 23.46H43.88C44.38 23.46 44.6 23.84 44.6 24.3C44.6 24.74 44.38 25.12 43.88 25.12H42.32L41.88 28.4H43.24C43.74 28.4 43.96 28.78 43.96 29.24C43.96 29.68 43.74 30.06 43.24 30.06H41.66L41.2 33.32C41.16 33.76 40.8 34.02 40.28 34C39.84 33.96 39.54 33.68 39.6 33.2L40.04 30.06H37.34L36.9 33.32C36.84 33.76 36.48 34.02 35.98 34C35.52 33.96 35.22 33.68 35.28 33.2L35.72 30.06H34.38C33.9 30.06 33.68 29.68 33.68 29.24C33.68 28.78 33.9 28.4 34.38 28.4H35.94L36.4 25.12H35.02C34.52 25.12 34.3 24.74 34.3 24.3C34.3 23.84 34.52 23.46 35.02 23.46H36.62L37.08 20.26C37.12 19.84 37.48 19.56 38 19.6ZM37.56 28.4H40.26L40.72 25.12H38L37.56 28.4ZM54.4828 19.28C55.0228 19.28 55.5028 19.54 55.5028 20.14V21.3C55.5028 23 55.9828 23.92 57.4628 24.9C58.6628 25.68 59.9228 26.4 61.2228 27.14C61.6228 27.36 61.6228 27.94 61.4028 28.32C61.1428 28.74 60.6628 28.94 60.2228 28.72C58.9628 28.02 57.6628 27.26 56.5428 26.52C55.2028 25.66 54.6228 24.98 54.5028 24.48H54.4828C54.3428 25.02 53.7628 25.7 52.4228 26.56C51.3028 27.28 50.0228 28.06 48.7428 28.76C48.3228 28.98 47.8228 28.78 47.5628 28.36C47.3228 27.96 47.3428 27.36 47.7428 27.14C49.0428 26.4 50.3028 25.68 51.5028 24.9C52.9828 23.92 53.4628 23 53.4628 21.3V20.14C53.4628 19.54 53.9428 19.28 54.4828 19.28ZM62.1828 32.26C62.6628 32.26 62.8828 32.64 62.8828 33.12C62.8828 33.58 62.6628 33.98 62.1828 33.98H46.7828C46.3028 33.98 46.0828 33.58 46.0828 33.12C46.0828 32.64 46.3028 32.26 46.7828 32.26H62.1828ZM78.5859 19.68C79.0659 19.68 79.2859 20.06 79.2859 20.52C79.2859 20.96 79.0659 21.34 78.5859 21.34H76.6459V26.92H78.6859C79.1459 26.92 79.3659 27.28 79.3659 27.74C79.3659 28.2 79.1459 28.58 78.6859 28.58H73.6859V32.28H80.3859C80.8659 32.28 81.0859 32.66 81.0859 33.12C81.0859 33.58 80.8659 33.98 80.3859 33.98H64.9859C64.5059 33.98 64.2859 33.58 64.2859 33.12C64.2859 32.66 64.5059 32.28 64.9859 32.28H71.6859V28.58H66.6859C66.2259 28.58 66.0059 28.2 66.0059 27.74C66.0059 27.28 66.2259 26.92 66.6859 26.92H68.7259V21.34H66.7859C66.3059 21.34 66.0859 20.96 66.0859 20.52C66.0859 20.06 66.3059 19.68 66.7859 19.68H78.5859ZM70.6659 26.92H74.7059V21.34H70.6659V26.92ZM90.8891 18.38C91.4291 18.38 91.9091 18.64 91.9091 19.22V20.76H96.7091C97.2091 20.76 97.4291 21.14 97.4291 21.62C97.4291 22.06 97.2091 22.46 96.7091 22.46H91.8891V22.92C91.8891 24.4 92.3091 25.04 93.7691 25.86C95.0291 26.58 96.0291 27.1 97.4491 27.82C97.8491 28 97.8691 28.56 97.6691 28.96C97.4291 29.4 96.9691 29.62 96.5291 29.4C95.2291 28.76 94.1491 28.18 92.9291 27.5C91.5691 26.74 91.0491 26.2 90.9091 25.66H90.8891C90.7491 26.22 90.2291 26.78 88.8491 27.54C87.6291 28.22 86.5691 28.8 85.2691 29.44C84.8291 29.66 84.3491 29.44 84.1091 29C83.9091 28.58 83.9291 28 84.3291 27.82C85.7491 27.1 86.7491 26.58 88.0091 25.86C89.4691 25.04 89.8891 24.4 89.8891 22.92V22.46H85.0691C84.5691 22.46 84.3491 22.06 84.3491 21.62C84.3491 21.14 84.5691 20.76 85.0691 20.76H89.8691V19.22C89.8691 18.64 90.3691 18.38 90.8891 18.38ZM98.5891 32.26C99.0691 32.26 99.2891 32.64 99.2891 33.12C99.2891 33.58 99.0691 33.98 98.5891 33.98H83.1891C82.7091 33.98 82.4891 33.58 82.4891 33.12C82.4891 32.64 82.7091 32.26 83.1891 32.26H98.5891ZM113.432 19.78C114.592 19.78 114.972 20.14 114.972 21.28V29.6C114.972 30.74 114.592 31.1 113.432 31.1H107.892C106.732 31.1 106.352 30.74 106.352 29.6V21.28C106.352 20.14 106.732 19.78 107.892 19.78H113.432ZM108.752 21.5C108.452 21.5 108.332 21.6 108.332 21.9V28.98C108.332 29.28 108.452 29.38 108.752 29.38H112.572C112.872 29.38 112.992 29.28 112.992 28.98V21.9C112.992 21.6 112.872 21.5 112.572 21.5H108.752ZM118.912 18.44C119.432 18.44 119.912 18.7 119.912 19.28V24.48H122.112C122.632 24.48 122.852 24.86 122.852 25.34C122.852 25.82 122.632 26.22 122.112 26.22H119.912V34.88C119.912 35.46 119.432 35.72 118.912 35.72C118.392 35.72 117.912 35.46 117.912 34.88V19.28C117.912 18.7 118.392 18.44 118.912 18.44ZM129.255 18.98C132.315 18.98 133.915 20.74 133.915 23.08C133.915 25.44 132.315 27.2 129.255 27.2C126.195 27.2 124.595 25.44 124.595 23.08C124.595 20.74 126.195 18.98 129.255 18.98ZM129.255 20.62C127.335 20.62 126.515 21.76 126.515 23.08C126.515 24.42 127.335 25.56 129.255 25.56C131.175 25.56 131.995 24.42 131.995 23.08C131.995 21.76 131.175 20.62 129.255 20.62ZM137.975 18.44C138.495 18.44 138.975 18.7 138.975 19.28V27.04C138.975 27.62 138.495 27.88 137.975 27.88C137.455 27.88 136.975 27.62 136.975 27.04V19.28C136.975 18.7 137.455 18.44 137.975 18.44ZM137.435 28.74C138.595 28.74 138.975 29.1 138.975 30.24V32.08C138.975 33.22 138.595 33.58 137.435 33.58H129.695C129.395 33.58 129.275 33.68 129.275 34V34.86C129.275 35.16 129.395 35.28 129.695 35.28H138.755C139.215 35.28 139.415 35.66 139.415 36.08C139.415 36.5 139.215 36.88 138.755 36.88H128.875C127.715 36.88 127.335 36.52 127.335 35.38V33.54C127.335 32.4 127.715 32.04 128.875 32.04H136.595C136.915 32.04 137.015 31.94 137.015 31.62V30.76C137.015 30.46 136.915 30.36 136.595 30.36H127.955C127.495 30.36 127.295 29.98 127.295 29.54C127.295 29.12 127.495 28.74 127.955 28.74H137.435ZM149.958 19.66C151.118 19.66 151.498 20.02 151.498 21.16V24.88C151.498 26.02 151.118 26.38 149.958 26.38H145.638C145.318 26.38 145.218 26.48 145.218 26.78V29.44C145.218 29.74 145.318 29.84 145.638 29.84C148.478 29.84 150.698 29.72 152.858 29.42C153.318 29.36 153.618 29.7 153.658 30.14C153.718 30.62 153.538 31.06 153.098 31.12C151.238 31.38 148.858 31.56 144.778 31.56C143.618 31.56 143.238 31.2 143.238 30.06V26.22C143.238 25.08 143.618 24.74 144.778 24.74H149.118C149.418 24.74 149.538 24.62 149.538 24.32V21.78C149.538 21.48 149.418 21.38 149.118 21.38H143.938C143.438 21.38 143.238 20.98 143.238 20.52C143.238 20.06 143.438 19.66 143.938 19.66H149.958ZM156.158 18.44C156.698 18.44 157.178 18.7 157.178 19.28V34.88C157.178 35.46 156.698 35.72 156.158 35.72C155.658 35.72 155.158 35.46 155.158 34.88V19.28C155.158 18.7 155.658 18.44 156.158 18.44ZM170.522 19.82C171.002 19.82 171.222 20.22 171.222 20.68C171.222 21.14 171.002 21.54 170.522 21.54H167.242V23.46C167.242 25.22 167.602 26.14 168.782 27.34C169.622 28.2 170.462 29 171.122 29.56C171.522 29.92 171.402 30.48 171.082 30.8C170.762 31.14 170.262 31.26 169.862 30.92C169.282 30.4 168.562 29.7 167.742 28.9C166.602 27.74 166.322 27.26 166.242 26.84H166.222C166.122 27.3 165.862 27.78 164.702 28.94C163.902 29.74 163.142 30.48 162.302 31.22C161.882 31.58 161.342 31.38 161.042 31.04C160.722 30.68 160.682 30.14 161.082 29.8C162.002 28.98 162.822 28.2 163.662 27.34C164.842 26.14 165.202 25.22 165.202 23.46V21.54H161.822C161.322 21.54 161.102 21.14 161.102 20.68C161.102 20.22 161.322 19.82 161.822 19.82H170.522ZM174.362 18.44C174.902 18.44 175.382 18.7 175.382 19.28V34.88C175.382 35.46 174.902 35.72 174.362 35.72C173.862 35.72 173.362 35.46 173.362 34.88V19.28C173.362 18.7 173.862 18.44 174.362 18.44Z" fill="white"/>
<g filter="url(#filter1_d_0_1)">
<rect x="189" y="28" width="171" height="55" rx="20" fill="white"/>
<rect x="189.5" y="28.5" width="170" height="54" rx="19.5" stroke="#44BD91"/>
</g>
<path d="M225 47.6C225.44 47.64 225.74 47.92 225.68 48.4L225.26 51.46H227.94L228.38 48.26C228.44 47.84 228.8 47.56 229.3 47.6C229.76 47.64 230.06 47.92 229.98 48.4L229.56 51.46H230.88C231.38 51.46 231.6 51.84 231.6 52.3C231.6 52.74 231.38 53.12 230.88 53.12H229.32L228.88 56.4H230.24C230.74 56.4 230.96 56.78 230.96 57.24C230.96 57.68 230.74 58.06 230.24 58.06H228.66L228.2 61.32C228.16 61.76 227.8 62.02 227.28 62C226.84 61.96 226.54 61.68 226.6 61.2L227.04 58.06H224.34L223.9 61.32C223.84 61.76 223.48 62.02 222.98 62C222.52 61.96 222.22 61.68 222.28 61.2L222.72 58.06H221.38C220.9 58.06 220.68 57.68 220.68 57.24C220.68 56.78 220.9 56.4 221.38 56.4H222.94L223.4 53.12H222.02C221.52 53.12 221.3 52.74 221.3 52.3C221.3 51.84 221.52 51.46 222.02 51.46H223.62L224.08 48.26C224.12 47.84 224.48 47.56 225 47.6ZM224.56 56.4H227.26L227.72 53.12H225L224.56 56.4ZM241.483 46.82C245.323 46.82 247.563 47.9 247.563 50.26C247.563 52.62 245.323 53.7 241.483 53.7C237.643 53.7 235.403 52.62 235.403 50.26C235.403 47.9 237.643 46.82 241.483 46.82ZM241.483 48.44C238.623 48.44 237.383 49.08 237.383 50.26C237.383 51.44 238.623 52.08 241.483 52.08C244.343 52.08 245.583 51.44 245.583 50.26C245.583 49.08 244.343 48.44 241.483 48.44ZM249.183 55.16C249.663 55.16 249.883 55.52 249.883 56C249.883 56.46 249.663 56.84 249.183 56.84H233.783C233.303 56.84 233.083 56.46 233.083 56C233.083 55.52 233.303 55.16 233.783 55.16H249.183ZM241.483 58.34C245.343 58.34 247.603 59.42 247.603 61.78C247.603 64.14 245.343 65.22 241.483 65.22C237.623 65.22 235.363 64.14 235.363 61.78C235.363 59.42 237.623 58.34 241.483 58.34ZM241.483 59.94C238.603 59.94 237.343 60.6 237.343 61.78C237.343 62.96 238.603 63.62 241.483 63.62C244.363 63.62 245.623 62.96 245.623 61.78C245.623 60.6 244.363 59.94 241.483 59.94ZM257.546 46.78C260.726 46.78 262.286 48.14 262.286 50.12C262.286 52.1 260.726 53.46 257.546 53.46C254.386 53.46 252.826 52.1 252.826 50.12C252.826 48.14 254.386 46.78 257.546 46.78ZM257.546 48.36C255.586 48.36 254.706 49.1 254.706 50.12C254.706 51.14 255.586 51.88 257.546 51.88C259.506 51.88 260.406 51.14 260.406 50.12C260.406 49.1 259.506 48.36 257.546 48.36ZM265.726 46.44C266.246 46.44 266.726 46.7 266.726 47.28V59.72C266.726 60.3 266.246 60.56 265.726 60.56C265.226 60.56 264.746 60.3 264.746 59.72V58.8H261.546C261.086 58.8 260.866 58.44 260.866 58C260.866 57.54 261.086 57.18 261.546 57.18H264.746V47.28C264.746 46.7 265.226 46.44 265.726 46.44ZM262.926 54.28C263.386 54.22 263.666 54.54 263.686 55.02C263.726 55.46 263.546 55.86 263.086 55.92C261.706 56.1 260.086 56.22 258.366 56.3V58.66C258.366 59.2 257.926 59.44 257.366 59.44C256.826 59.44 256.386 59.2 256.386 58.66V56.36C254.986 56.4 253.566 56.42 252.226 56.42C251.746 56.42 251.526 56.06 251.526 55.6C251.526 55.14 251.746 54.76 252.226 54.76C255.566 54.76 259.366 54.7 262.926 54.28ZM255.486 59.76C255.986 59.76 256.486 60.02 256.486 60.6V62.56C256.486 62.86 256.586 62.98 256.906 62.98H266.506C266.986 62.98 267.206 63.36 267.206 63.82C267.206 64.28 266.986 64.68 266.506 64.68H256.006C254.846 64.68 254.466 64.32 254.466 63.18V60.6C254.466 60.02 254.946 59.76 255.486 59.76ZM278.609 47.34C279.089 47.34 279.309 47.74 279.309 48.18C279.309 48.62 279.089 49.02 278.609 49.02H273.029C272.709 49.02 272.609 49.12 272.609 49.44V51.02H278.429C278.889 51.02 279.109 51.4 279.109 51.84C279.109 52.28 278.889 52.66 278.429 52.66H272.609V54.3C272.609 54.6 272.709 54.7 273.029 54.7C275.869 54.7 278.089 54.58 280.249 54.28C280.709 54.22 281.009 54.54 281.049 54.98C281.109 55.44 280.929 55.88 280.489 55.94C278.629 56.2 276.249 56.38 272.169 56.38C271.009 56.38 270.629 56.02 270.629 54.88V48.84C270.629 47.7 271.009 47.34 272.169 47.34H278.609ZM283.569 46.44C284.089 46.44 284.569 46.7 284.569 47.28V56.42C284.569 57 284.089 57.26 283.569 57.26C283.049 57.26 282.569 57 282.569 56.42V47.28C282.569 46.7 283.049 46.44 283.569 46.44ZM283.029 58.12C284.189 58.12 284.569 58.48 284.569 59.62V63.28C284.569 64.42 284.189 64.78 283.029 64.78H274.429C273.269 64.78 272.889 64.42 272.889 63.28V59.62C272.889 58.48 273.269 58.12 274.429 58.12H283.029ZM275.289 59.8C274.989 59.8 274.869 59.9 274.869 60.2V62.7C274.869 63 274.989 63.1 275.289 63.1H282.169C282.469 63.1 282.589 63 282.589 62.7V60.2C282.589 59.9 282.469 59.8 282.169 59.8H275.289ZM298.372 46.84C298.912 46.84 299.392 47.1 299.392 47.68V49.42C299.392 50.6 299.772 51.4 300.712 52.1C301.632 52.78 302.392 53.3 303.092 53.76C303.532 54.06 303.532 54.6 303.252 54.98C303.012 55.34 302.512 55.54 302.072 55.26C301.492 54.88 300.732 54.36 299.832 53.7C298.852 52.98 298.512 52.54 298.412 52.16H298.392C298.292 52.58 297.952 53.06 296.932 53.8C296.032 54.44 295.212 55.02 294.352 55.58C293.912 55.86 293.392 55.62 293.152 55.24C292.912 54.88 292.892 54.32 293.332 54.02C294.292 53.4 295.132 52.84 296.052 52.14C296.992 51.46 297.372 50.66 297.372 49.46V47.68C297.372 47.1 297.852 46.84 298.372 46.84ZM306.912 46.44C307.412 46.44 307.892 46.7 307.892 47.28V55.04C307.892 55.62 307.412 55.88 306.912 55.88C306.392 55.88 305.912 55.62 305.912 55.04V51.3H302.872C302.372 51.3 302.152 50.9 302.152 50.44C302.152 49.96 302.372 49.58 302.872 49.58H305.912V47.28C305.912 46.7 306.392 46.44 306.912 46.44ZM296.792 56.74H306.352C307.512 56.74 307.892 57.1 307.892 58.24V60.08C307.892 61.22 307.512 61.58 306.352 61.58H298.532C298.232 61.58 298.112 61.68 298.112 62V62.86C298.112 63.16 298.232 63.28 298.532 63.28H307.672C308.132 63.28 308.332 63.66 308.332 64.08C308.332 64.5 308.132 64.88 307.672 64.88H297.712C296.552 64.88 296.172 64.52 296.172 63.38V61.54C296.172 60.4 296.552 60.04 297.712 60.04H305.512C305.832 60.04 305.932 59.94 305.932 59.62V58.76C305.932 58.46 305.832 58.36 305.512 58.36H296.792C296.332 58.36 296.132 57.98 296.132 57.54C296.132 57.12 296.332 56.74 296.792 56.74ZM320.835 47.48C321.315 47.48 321.535 47.88 321.535 48.34C321.535 48.8 321.315 49.18 320.835 49.18H317.635V50.26C317.635 51.54 317.995 52.34 318.955 53.12C319.875 53.88 320.735 54.52 321.335 54.94C321.775 55.28 321.775 55.76 321.495 56.16C321.235 56.48 320.755 56.74 320.255 56.4C319.815 56.08 318.995 55.46 318.135 54.78C317.115 53.98 316.775 53.52 316.675 53.12H316.655C316.555 53.56 316.155 54.06 315.155 54.88C314.275 55.56 313.435 56.18 312.675 56.72C312.215 57.06 311.695 56.82 311.455 56.48C311.175 56.08 311.155 55.56 311.615 55.22C312.535 54.56 313.395 53.94 314.335 53.18C315.275 52.4 315.635 51.6 315.635 50.3V49.18H312.295C311.795 49.18 311.575 48.8 311.575 48.34C311.575 47.88 311.795 47.48 312.295 47.48H320.835ZM325.115 46.44C325.615 46.44 326.095 46.7 326.095 47.28V56.58C326.095 57.14 325.615 57.4 325.115 57.4C324.595 57.4 324.115 57.14 324.115 56.58V52.72H321.235C320.735 52.72 320.515 52.32 320.515 51.86C320.515 51.38 320.735 51 321.235 51H324.115V47.28C324.115 46.7 324.595 46.44 325.115 46.44ZM320.335 57.58C324.035 57.58 326.195 58.86 326.195 61.36C326.195 63.86 324.035 65.14 320.335 65.14C316.635 65.14 314.475 63.86 314.475 61.36C314.475 58.86 316.635 57.58 320.335 57.58ZM320.335 59.2C317.615 59.2 316.455 60.04 316.455 61.36C316.455 62.68 317.615 63.52 320.335 63.52C323.035 63.52 324.215 62.68 324.215 61.36C324.215 60.04 323.035 59.2 320.335 59.2Z" fill="black"/>
<defs>
<filter id="filter0_d_0_1" x="0" y="0" width="212" height="63" filterUnits="userSpaceOnUse" color-interpolation-filters="sRGB">
<feFlood flood-opacity="0" result="BackgroundImageFix"/>
<feColorMatrix in="SourceAlpha" type="matrix" values="0 0 0 0 0 0 0 0 0 0 0 0 0 0 0 0 0 0 127 0" result="hardAlpha"/>
<feOffset dy="4"/>
<feGaussianBlur stdDeviation="2"/>
<feComposite in2="hardAlpha" operator="out"/>
<feColorMatrix type="matrix" values="0 0 0 0 0 0 0 0 0 0 0 0 0 0 0 0 0 0 0.25 0"/>
<feBlend mode="normal" in2="BackgroundImageFix" result="effect1_dropShadow_0_1"/>
<feBlend mode="normal" in="SourceGraphic" in2="effect1_dropShadow_0_1" result="shape"/>
</filter>
<filter id="filter1_d_0_1" x="185" y="28" width="179" height="63" filterUnits="userSpaceOnUse" color-interpolation-filters="sRGB">
<feFlood flood-opacity="0" result="BackgroundImageFix"/>
<feColorMatrix in="SourceAlpha" type="matrix" values="0 0 0 0 0 0 0 0 0 0 0 0 0 0 0 0 0 0 127 0" result="hardAlpha"/>
<feOffset dy="4"/>
<feGaussianBlur stdDeviation="2"/>
<feComposite in2="hardAlpha" operator="out"/>
<feColorMatrix type="matrix" values="0 0 0 0 0 0 0 0 0 0 0 0 0 0 0 0 0 0 0.25 0"/>
<feBlend mode="normal" in2="BackgroundImageFix" result="effect1_dropShadow_0_1"/>
<feBlend mode="normal" in="SourceGraphic" in2="effect1_dropShadow_0_1" result="shape"/>
</filter>
</defs>
</svg>
